<svg width="115" height="108" viewBox="0 0 115 108" fill="none" xmlns="http://www.w3.org/2000/svg">
<path d="M34.704 103.44C27.824 103.44 22.016 101.92 17.28 98.88C12.544 95.808 8.96 91.568 6.528 86.16C4.096 80.752 2.88 74.512 2.88 67.44C2.88 60.368 4.096 54.128 6.528 48.72C8.96 43.312 12.544 39.088 17.28 36.048C22.016 32.976 27.824 31.44 34.704 31.44C42.736 31.44 49.296 33.504 54.384 37.632C59.472 41.728 62.96 47.232 64.848 54.144L57.648 56.016C56.176 50.544 53.536 46.208 49.728 43.008C45.92 39.808 40.912 38.208 34.704 38.208C29.296 38.208 24.8 39.44 21.216 41.904C17.632 44.368 14.928 47.808 13.104 52.224C11.312 56.608 10.384 61.68 10.32 67.44C10.288 73.2 11.168 78.272 12.96 82.656C14.784 87.04 17.504 90.48 21.12 92.976C24.768 95.44 29.296 96.672 34.704 96.672C40.912 96.672 45.92 95.072 49.728 91.872C53.536 88.64 56.176 84.304 57.648 78.864L64.848 80.736C62.96 87.648 59.472 93.168 54.384 97.296C49.296 101.392 42.736 103.44 34.704 103.44Z" fill="black"/>
<path d="M73.5188 102V32.88H114.463V42.912H83.5508V62.4H108.703V72.48H83.5508V102H73.5188Z" fill="#5E4A72"/>
</svg>
