<svg width="498" height="111" viewBox="0 0 498 111" fill="none" xmlns="http://www.w3.org/2000/svg">
<path d="M28.92 86.2C23.1867 86.2 18.3467 84.9333 14.4 82.4C10.4533 79.84 7.46667 76.3067 5.44 71.8C3.41333 67.2933 2.4 62.0933 2.4 56.2C2.4 50.3067 3.41333 45.1067 5.44 40.6C7.46667 36.0933 10.4533 32.5733 14.4 30.04C18.3467 27.48 23.1867 26.2 28.92 26.2C35.6133 26.2 41.08 27.92 45.32 31.36C49.56 34.7733 52.4667 39.36 54.04 45.12L48.04 46.68C46.8133 42.12 44.6133 38.5067 41.44 35.84C38.2667 33.1733 34.0933 31.84 28.92 31.84C24.4133 31.84 20.6667 32.8667 17.68 34.92C14.6933 36.9733 12.44 39.84 10.92 43.52C9.42667 47.1733 8.65333 51.4 8.6 56.2C8.57333 61 9.30667 65.2267 10.8 68.88C12.32 72.5333 14.5867 75.4 17.6 77.48C20.64 79.5333 24.4133 80.56 28.92 80.56C34.0933 80.56 38.2667 79.2267 41.44 76.56C44.6133 73.8667 46.8133 70.2533 48.04 65.72L54.04 67.28C52.4667 73.04 49.56 77.64 45.32 81.08C41.08 84.4933 35.6133 86.2 28.92 86.2ZM73.6256 86.2C70.3723 86.2 67.639 85.6133 65.4256 84.44C63.239 83.2667 61.599 81.7067 60.5056 79.76C59.4123 77.8133 58.8656 75.6933 58.8656 73.4C58.8656 71.0533 59.3323 69.0533 60.2656 67.4C61.2256 65.72 62.519 64.3467 64.1456 63.28C65.799 62.2133 67.7056 61.4 69.8656 60.84C72.0523 60.3067 74.4656 59.84 77.1056 59.44C79.7723 59.0133 82.3723 58.6533 84.9056 58.36C87.4656 58.04 89.7056 57.7333 91.6256 57.44L89.5456 58.72C89.6256 54.4533 88.799 51.2933 87.0656 49.24C85.3323 47.1867 82.319 46.16 78.0256 46.16C75.0656 46.16 72.559 46.8267 70.5056 48.16C68.479 49.4933 67.0523 51.6 66.2256 54.48L60.5056 52.8C61.4923 48.9333 63.479 45.9333 66.4656 43.8C69.4523 41.6667 73.3323 40.6 78.1056 40.6C82.0523 40.6 85.399 41.3467 88.1456 42.84C90.919 44.3067 92.879 46.44 94.0256 49.24C94.559 50.4933 94.9056 51.8933 95.0656 53.44C95.2256 54.9867 95.3056 56.56 95.3056 58.16V85H90.0656V74.16L91.5856 74.8C90.119 78.5067 87.839 81.3333 84.7456 83.28C81.6523 85.2267 77.9456 86.2 73.6256 86.2ZM74.3056 81.12C77.0523 81.12 79.4523 80.6267 81.5056 79.64C83.559 78.6533 85.2123 77.3067 86.4656 75.6C87.719 73.8667 88.5323 71.92 88.9056 69.76C89.2256 68.3733 89.399 66.8533 89.4256 65.2C89.4523 63.52 89.4656 62.2667 89.4656 61.44L91.7056 62.6C89.7056 62.8667 87.5323 63.1333 85.1856 63.4C82.8656 63.6667 80.5723 63.9733 78.3056 64.32C76.0656 64.6667 74.039 65.08 72.2256 65.56C70.999 65.9067 69.8123 66.4 68.6656 67.04C67.519 67.6533 66.5723 68.48 65.8256 69.52C65.1056 70.56 64.7456 71.8533 64.7456 73.4C64.7456 74.6533 65.0523 75.8667 65.6656 77.04C66.3056 78.2133 67.319 79.1867 68.7056 79.96C70.119 80.7333 71.9856 81.12 74.3056 81.12ZM155.639 85L155.679 56.64C155.679 53.3067 154.745 50.6933 152.879 48.8C151.039 46.88 148.692 45.92 145.839 45.92C144.212 45.92 142.625 46.2933 141.079 47.04C139.532 47.7867 138.252 48.9867 137.239 50.64C136.252 52.2933 135.759 54.4533 135.759 57.12L132.279 56.12C132.199 53.0267 132.799 50.32 134.079 48C135.385 45.68 137.172 43.88 139.439 42.6C141.732 41.2933 144.319 40.64 147.199 40.64C151.545 40.64 155.025 41.9867 157.639 44.68C160.252 47.3467 161.559 50.96 161.559 55.52L161.519 85H155.639ZM104.079 85V41.8H109.359V52.44H109.999V85H104.079ZM129.919 85L129.959 57.04C129.959 53.6 129.039 50.8933 127.199 48.92C125.385 46.92 122.985 45.92 119.999 45.92C117.012 45.92 114.599 46.9467 112.759 49C110.919 51.0267 109.999 53.7333 109.999 57.12L106.479 55.2C106.479 52.4267 107.132 49.9467 108.439 47.76C109.745 45.5467 111.532 43.8133 113.799 42.56C116.065 41.28 118.639 40.64 121.519 40.64C124.265 40.64 126.705 41.2267 128.839 42.4C130.999 43.5733 132.692 45.28 133.919 47.52C135.145 49.76 135.759 52.48 135.759 55.68L135.719 85H129.919ZM171.131 33.6V27H177.011V33.6H171.131ZM171.131 85V41.8H177.011V85H171.131ZM188.203 85V26.2H194.083V85H188.203ZM205.275 85V26.2H211.155V85H205.275ZM222.347 33.6V27H228.227V33.6H222.347ZM222.347 85V41.8H228.227V85H222.347Z" fill="black"/>
<path d="M254.634 85V27.4H288.754V35.76H262.994V52H283.954V60.4H262.994V85H254.634ZM297.963 34.72V26.6H306.323V34.72H297.963ZM297.963 85V41.8H306.323V85H297.963ZM336.694 86.2C332.668 86.2 329.188 85.2 326.254 83.2C323.348 81.2 321.094 78.48 319.494 75.04C317.921 71.5733 317.134 67.68 317.134 63.36C317.134 59.0133 317.934 55.1333 319.534 51.72C321.134 48.28 323.401 45.5733 326.334 43.6C329.294 41.6 332.801 40.6 336.854 40.6C340.934 40.6 344.361 41.6 347.134 43.6C349.934 45.5733 352.041 48.28 353.454 51.72C354.894 55.16 355.614 59.04 355.614 63.36C355.614 67.68 354.894 71.56 353.454 75C352.014 78.44 349.894 81.1733 347.094 83.2C344.294 85.2 340.828 86.2 336.694 86.2ZM337.854 78.64C340.601 78.64 342.841 77.9867 344.574 76.68C346.308 75.3733 347.574 73.5733 348.374 71.28C349.174 68.9867 349.574 66.3467 349.574 63.36C349.574 60.3733 349.161 57.7333 348.334 55.44C347.534 53.1467 346.281 51.36 344.574 50.08C342.894 48.8 340.748 48.16 338.134 48.16C335.361 48.16 333.081 48.84 331.294 50.2C329.508 51.56 328.174 53.3867 327.294 55.68C326.441 57.9733 326.014 60.5333 326.014 63.36C326.014 66.2133 326.441 68.8 327.294 71.12C328.174 73.4133 329.481 75.24 331.214 76.6C332.974 77.96 335.188 78.64 337.854 78.64ZM349.574 85V53.92H348.614V27.4H357.014V85H349.574ZM388.566 86.2C384.273 86.2 380.5 85.2667 377.246 83.4C374.02 81.5067 371.5 78.88 369.686 75.52C367.9 72.1333 367.006 68.2133 367.006 63.76C367.006 59.04 367.886 54.9467 369.646 51.48C371.433 48.0133 373.913 45.3333 377.086 43.44C380.26 41.5467 383.953 40.6 388.166 40.6C392.566 40.6 396.313 41.6267 399.406 43.68C402.5 45.7067 404.806 48.6 406.326 52.36C407.873 56.12 408.486 60.5867 408.166 65.76H399.806V62.72C399.753 57.7067 398.793 54 396.926 51.6C395.086 49.2 392.273 48 388.486 48C384.3 48 381.153 49.32 379.046 51.96C376.94 54.6 375.886 58.4133 375.886 63.4C375.886 68.1467 376.94 71.8267 379.046 74.44C381.153 77.0267 384.193 78.32 388.166 78.32C390.78 78.32 393.033 77.7333 394.926 76.56C396.846 75.36 398.34 73.6533 399.406 71.44L407.606 74.04C405.926 77.9067 403.38 80.9067 399.966 83.04C396.553 85.1467 392.753 86.2 388.566 86.2ZM373.166 65.76V59.24H404.006V65.76H373.166ZM419.141 85V26.2H427.501V85H419.141ZM441.512 34.72V26.6H449.872V34.72H441.512ZM441.512 85V41.8H449.872V85H441.512ZM479.604 86.16C474.351 86.16 470.071 85 466.764 82.68C463.458 80.36 461.431 77.0933 460.684 72.88L469.244 71.56C469.778 73.8 471.004 75.5733 472.924 76.88C474.871 78.16 477.284 78.8 480.164 78.8C482.778 78.8 484.818 78.2667 486.284 77.2C487.778 76.1333 488.524 74.6667 488.524 72.8C488.524 71.7067 488.258 70.8267 487.724 70.16C487.218 69.4667 486.138 68.8133 484.484 68.2C482.831 67.5867 480.311 66.8267 476.924 65.92C473.218 64.96 470.271 63.9333 468.084 62.84C465.924 61.72 464.378 60.4267 463.444 58.96C462.538 57.4667 462.084 55.6667 462.084 53.56C462.084 50.9467 462.778 48.6667 464.164 46.72C465.551 44.7733 467.498 43.2667 470.004 42.2C472.538 41.1333 475.498 40.6 478.884 40.6C482.191 40.6 485.138 41.12 487.724 42.16C490.311 43.2 492.404 44.68 494.004 46.6C495.604 48.4933 496.564 50.72 496.884 53.28L488.324 54.84C488.031 52.76 487.058 51.12 485.404 49.92C483.751 48.72 481.604 48.0667 478.964 47.96C476.431 47.8533 474.378 48.28 472.804 49.24C471.231 50.1733 470.444 51.4667 470.444 53.12C470.444 54.08 470.738 54.8933 471.324 55.56C471.938 56.2267 473.111 56.8667 474.844 57.48C476.578 58.0933 479.138 58.8267 482.524 59.68C486.151 60.6133 489.031 61.6533 491.164 62.8C493.298 63.92 494.818 65.2667 495.724 66.84C496.658 68.3867 497.124 70.2667 497.124 72.48C497.124 76.7467 495.564 80.0933 492.444 82.52C489.351 84.9467 485.071 86.16 479.604 86.16Z" fill="#5E4A72"/>
</svg>
